# xmcd
#
# Track frame offsets:
#	150
#	11378
#	25505
#	39556
#	56774
#	70182
#	91454
#	113109
#	122718
#	142334
#	152688
#	164021
#	176239
#
# Disc length: 2493 seconds
#
# Revision: 0
# Processed by: cddbd v1.5.2PL0 Copyright (c) Steve Scherf et al.
# Submitted via: EasyCDDAExtractor 16.0.6.1
#
DISCID=b209bb0d
DTITLE=Συλλογικός δίσκος - Παραστάσεις-LP, Χρ. Λεοντής
DYEAR=1975
DGENRE=Έντεχνη
TTITLE0=Μητσιάς Μανώλης - Μιά φορά κι έναν καιρό
TTITLE1=Μητσιάς Μανώλης - Χάθηκε η επανάστασή μας
TTITLE2=Μητσιάς Μανώλης - Αν ήξερα ανάγνωση, γραφή
TTITLE3=Τσανακλίδου Τάνια-Μητσιάς Μανώλης - Το στρείδι και το μαργαριτάρι
TTITLE4=Τσανακλίδου Τάνια-Μεράντζας Γιώργος - Τέτοιος τρανός θαλασσοπόρος
TTITLE5=Τσανακλίδου Τάνια-Μεράντζας Γιώργος - Δόξα! δόξα! [Ντάριο Φο, μτφ. Σκα
TTITLE5=λιώρας Κωστής]
TTITLE6=Ξυλούρης Νίκος - Οι νεκροί της πλατείας [Νερούδα, μτφ. Δανάη Στρατηγοπ
TTITLE6=ούλου]
TTITLE7=Τσανακλίδου Τάνια - Μοραζάν [Νερούδα, μτφ. Δανάη Στρατηγοπούλου]
TTITLE8=Μεράντζας Γιώργος - Οι ελευθερωτές [Νερούδα, μτφ. Δανάη Στρατηγοπούλου
TTITLE8=]
TTITLE9=Τσανακλίδου Τάνια - Ελεύθεροι πολιορκημένοι [α' σχεδίασμα Διονυσίου Σο
TTITLE9=λωμού]
TTITLE10=Ξυλούρης Νίκος - Ο Ήλιος εβασίλεψε [απομνημονεύματα Μακρυγιάννη]
TTITLE11=Μητσιάς Μανώλης - Με πιάσανε Σαρακηνοί [Μάνος Ελευθερίου]
TTITLE12=Ξυλούρης Νίκος - Θούριος του Ρήγα [Ρήγας Φερραίος]
EXTD=
EXTT0=
EXTT1=
EXTT2=
EXTT3=
EXTT4=
EXTT5=
EXTT6=
EXTT7=
EXTT8=
EXTT9=
EXTT10=
EXTT11=
EXTT12=
PLAYORDER=
